<svg xmlns="http://www.w3.org/2000/svg" width="224.656" height="35.262" viewBox="0 0 224.656 35.262">
  <path id="footer_logo_blue" d="M41.9.748l-9.75,33.824h8.22l2.015-6.987H55.69l2.06,6.987h8.22L56.144.748ZM44.536,20l3.4-11.572H50.2L53.594,20ZM0,8.47H11.9v26.1h8V8.528H31.8V.748H0ZM170.993,0c-6.227,0-12.208.465-14.722,6.794-.872,2.265-1,4.6-1,10.837s.124,8.629,1,10.837c2.525,6.353,8.5,6.794,14.722,6.794s12.219-.465,14.722-6.794c.883-2.208,1.009-4.6,1.009-10.837s-.079-8.573-1.009-10.837C183.245.465,177.254,0,170.993,0Zm7.393,24.357c-.793,2.548-3.5,3.228-7.393,3.228s-6.6-.678-7.393-3.228a31.007,31.007,0,0,1-.35-6.7,31.037,31.037,0,0,1,.35-6.693c.793-2.559,3.511-3.24,7.393-3.24s6.6.678,7.393,3.24a30.2,30.2,0,0,1,.35,6.693,30.433,30.433,0,0,1-.317,6.7ZM90.285,18.9,84.217.748H72.362V34.572H80.4V11.165l5.911,17.586h8.108l5.866-17.586V34.572h8V.748H96.427L90.289,18.9ZM216.708.748V21.877L205.2.748h-9.489V34.572h8V13.441l11.449,21.131h9.5V.748ZM146.635,19.037c.465-1.348.656-2.808.656-6.342s-.193-5.005-.656-6.353C145.344,2.559,141.778.748,136.025.748H118.133V34.572h8V24.64h9.341l4.949,9.932h8.811L143.409,23a7.158,7.158,0,0,0,3.228-3.963Zm-7.814-3.4c-.748,1.132-2.049,1.292-3.851,1.292h-8.845V8.47h8.845c1.8,0,3.1.148,3.851,1.3a5.12,5.12,0,0,1,.476,2.921,5.136,5.136,0,0,1-.476,2.921v.022Z" fill="#1658a0"/>
</svg>
