<svg xmlns="http://www.w3.org/2000/svg" xmlns:xlink="http://www.w3.org/1999/xlink" width="22" height="19" viewBox="0 0 22 19">
  <defs>
    <clipPath id="clip-path">
      <rect id="長方形_140416" data-name="長方形 140416" width="22" height="19" transform="translate(-1.637 -0.137)" fill="#fff"/>
    </clipPath>
  </defs>
  <g id="sns04" transform="translate(1.637 0.137)" clip-path="url(#clip-path)">
    <path id="パス_796" data-name="パス 796" d="M18.4,17.068a2.336,2.336,0,0,0-1.654-1.654C15.283,15,9.4,15,9.4,15a58.757,58.757,0,0,0-7.35.376A2.336,2.336,0,0,0,.395,17.03,24.672,24.672,0,0,0,0,21.58a24.124,24.124,0,0,0,.395,4.512,2.336,2.336,0,0,0,1.654,1.654c1.466.414,7.35.414,7.35.414a58.757,58.757,0,0,0,7.35-.376A2.336,2.336,0,0,0,18.4,26.129,24.673,24.673,0,0,0,18.8,21.58,24.124,24.124,0,0,0,18.4,17.068ZM7.519,24.4V18.76l4.888,2.82Z" transform="translate(0 -12.116)" fill="#fff"/>
  </g>
</svg>
