<svg xmlns="http://www.w3.org/2000/svg" xmlns:xlink="http://www.w3.org/1999/xlink" width="19" height="19" viewBox="0 0 19 19">
  <defs>
    <clipPath id="clip-path">
      <rect id="長方形_140417" data-name="長方形 140417" width="19" height="19" transform="translate(0.391 -0.137)" fill="#fff"/>
    </clipPath>
  </defs>
  <g id="sns05" transform="translate(-0.391 0.137)" clip-path="url(#clip-path)">
    <path id="パス_797" data-name="パス 797" d="M16.016,16.016H13.234V11.655c0-1.053-.038-2.387-1.447-2.387-1.447,0-1.692,1.128-1.692,2.293V16H7.313V7.049H9.982V8.271h.038a2.955,2.955,0,0,1,2.632-1.447c2.82,0,3.327,1.861,3.327,4.267ZM4.173,5.828A1.617,1.617,0,1,1,5.79,4.211,1.617,1.617,0,0,1,4.173,5.828M5.564,16.016H2.782V7.049H5.564ZM17.407,0H1.391A1.384,1.384,0,0,0,0,1.372V17.445a1.4,1.4,0,0,0,1.391,1.372H17.407A1.384,1.384,0,0,0,18.8,17.445V1.372A1.384,1.384,0,0,0,17.407,0" transform="translate(0 0.065)" fill="#fff"/>
  </g>
</svg>
