<svg xmlns="http://www.w3.org/2000/svg" xmlns:xlink="http://www.w3.org/1999/xlink" width="22" height="21" viewBox="0 0 22 21">
  <defs>
    <clipPath id="clip-path">
      <rect id="長方形_140608" data-name="長方形 140608" width="22" height="21" transform="translate(-1.545 -1.137)" fill="#707070"/>
    </clipPath>
  </defs>
  <g id="sns02" transform="translate(1.545 1.137)" clip-path="url(#clip-path)">
    <path id="パス_886" data-name="パス 886" d="M18.8,9.7A9.4,9.4,0,1,0,7.933,18.986V12.425H5.546V9.7H7.933V7.631a3.33,3.33,0,0,1,3.553-3.666,14.058,14.058,0,0,1,2.105.188V6.466H12.407a1.355,1.355,0,0,0-1.523,1.466V9.7H13.5l-.414,2.726H10.866v6.561A9.406,9.406,0,0,0,18.8,9.7Z" transform="translate(0 -0.179)" fill="#707070"/>
  </g>
</svg>
